<?xml version="1.0" encoding="UTF-8"?>
<svg version="1.1" xmlns="http://www.w3.org/2000/svg" width="349" height="275">
<path d="M0 0 C115.17 0 230.34 0 349 0 C349 90.75 349 181.5 349 275 C233.83 275 118.66 275 0 275 C0 184.25 0 93.5 0 0 Z " fill="#020201" transform="translate(0,0)"/>
<path d="M0 0 C-0.39555095 4.35106048 -0.83826029 7.61174217 -2.53125 11.67578125 C-4.09756406 16.22563996 -4.23648289 20.59408559 -4.23046875 25.359375 C-4.23189629 26.49488548 -4.23189629 26.49488548 -4.23335266 27.65333557 C-4.22678383 30.82425658 -4.20426121 33.99337298 -4.1340332 37.16357422 C-3.87509105 50.60390487 -3.87509105 50.60390487 -6.76416016 54.18945312 C-9.50502776 55.95024541 -11.7215898 57 -15 57 C-15 57.66 -15 58.32 -15 59 C-15.94875 59.350625 -16.8975 59.70125 -17.875 60.0625 C-23.07786487 62.29983743 -27.51998412 65.57367206 -32 69 C-32.9590625 69.72896484 -32.9590625 69.72896484 -33.9375 70.47265625 C-37.06192412 73.16897418 -38.46477223 75.58749728 -39.1875 79.5625 C-39.34858644 83.10640166 -39.09291427 83.86353217 -37 86.9375 C-31.420884 90.77314225 -25.77982882 91.28188175 -19.16796875 91.08984375 C-17.69596645 91.06945019 -16.22396113 91.04927408 -14.75195312 91.02929688 C-12.45632088 90.98558231 -10.16090747 90.93688209 -7.86547852 90.88354492 C-5.63298316 90.83546041 -3.40079088 90.80548956 -1.16796875 90.77734375 C-0.47841599 90.75558578 0.21113678 90.73382782 0.92158508 90.71141052 C2.85473633 90.69116211 2.85473633 90.69116211 6 91 C8.49740441 94.74610662 8.52143611 97.6622561 8 102 C7.54372776 103.51387438 7.04219972 105.01473253 6.5 106.5 C4.8903976 110.93023899 4.51323424 114.29459769 5 119 C6.39585785 120.81476003 6.39585785 120.81476003 8 122 C8 122.99 8 123.98 8 125 C6.78376953 125.4021875 6.78376953 125.4021875 5.54296875 125.8125 C-2.71263108 128.73415582 -9.19626873 132.505203 -16 138 C-16.07912845 141.95114707 -15.74616083 144.05508659 -13.26220703 147.20068359 C-10.91977686 149.59858021 -8.51778649 151.9053065 -6.0625 154.1875 C-4.4032981 155.75984607 -2.748169 157.336504 -1.09765625 158.91796875 C-0.36039307 159.60656982 0.37687012 160.2951709 1.13647461 161.00463867 C3.90082561 163.96455492 4.87398824 166.19667502 5.5 170.1875 C4.3867112 178.67632714 -2.81362465 185.36097964 -8.01611328 191.88549805 C-11.34883247 196.08794758 -14.30527878 200.35392893 -17 205 C-21.52132864 204.11825219 -24.30321189 201.53126161 -27.6875 198.5625 C-28.62287598 197.74616089 -28.62287598 197.74616089 -29.57714844 196.91333008 C-51.10101111 177.85864307 -65.36432484 151.55403341 -69 123 C-69.26351405 117.73226323 -69.29470958 112.46112009 -69.3125 107.1875 C-69.31511841 106.44934052 -69.31773682 105.71118103 -69.32043457 104.95065308 C-69.32477948 93.53114493 -68.56368199 82.91224001 -65 72 C-64.68804687 71.0409375 -64.37609375 70.081875 -64.0546875 69.09375 C-62.0431245 63.61688941 -59.22304027 58.59329725 -56.36328125 53.51953125 C-54.87632655 50.89317306 -54.87632655 50.89317306 -53.625 47.5 C-44.82330965 28.54251309 -24.28780959 9.71512384 -5 2 C-2 0 -2 0 0 0 Z " fill="#FBC157" transform="translate(126,31)"/>
<path d="M0 0 C5.80165739 0.97458672 10.83982722 2.01253155 16 5 C16 5.66 16 6.32 16 7 C18.97 7.99 21.94 8.98 25 10 C25 10.66 25 11.32 25 12 C25.74403076 12.26031006 26.48806152 12.52062012 27.25463867 12.78881836 C30.05942175 14.02621532 31.71552217 15.2819219 33.92578125 17.37890625 C34.63605469 18.04809082 35.34632813 18.71727539 36.078125 19.40673828 C36.81546875 20.11813965 37.5528125 20.82954102 38.3125 21.5625 C39.07433594 22.29194824 39.83617187 23.02139648 40.62109375 23.77294922 C62.05964514 44.44254913 77.27348827 71.42922054 78.25390625 101.83203125 C78.48103811 115.73206219 78.64830647 130.05596435 73 143 C72.32264783 144.99640639 71.65161065 146.99504414 71 149 C64.39855966 147.76922299 58.51612267 145.71084312 52.28125 143.234375 C47.6021518 141.47414282 42.83925402 140.23110622 38 139 C36.6859417 138.63049757 35.37319993 138.25624393 34.0625 137.875 C31.71441703 137.20411915 29.37022586 136.58359773 27 136 C28.09430561 128.43785821 29.98976799 121.27507913 32.32299805 114.01586914 C32.64651245 112.97740845 32.64651245 112.97740845 32.9765625 111.91796875 C33.17330566 111.30719482 33.37004883 110.6964209 33.57275391 110.06713867 C34.20240672 107.37250338 34.20240672 107.37250338 34 102 C28.72 100.35 23.44 98.7 18 97 C15.99663523 87.34742429 14.28064728 77.77811868 13 68 C14.24252679 67.15556432 15.4943886 66.3248542 16.75 65.5 C17.79414063 64.80390625 17.79414063 64.80390625 18.859375 64.09375 C21 63 21 63 25 63 C25 62.34 25 61.68 25 61 C26.9765625 59.66796875 26.9765625 59.66796875 29.625 58.1875 C37.97325402 53.34998731 37.97325402 53.34998731 44 46 C44.25086724 42.83267579 44.25086724 42.83267579 44 40 C42.39125 39.071875 42.39125 39.071875 40.75 38.125 C40.14671875 37.77695313 39.5434375 37.42890625 38.921875 37.0703125 C38.28765625 36.71710938 37.6534375 36.36390625 37 36 C36.13181641 35.47792969 36.13181641 35.47792969 35.24609375 34.9453125 C32.41265833 33.75280577 30.21064562 33.77336076 27.140625 33.8046875 C26.02558594 33.81113281 24.91054687 33.81757812 23.76171875 33.82421875 C22.60285156 33.84097656 21.44398438 33.85773437 20.25 33.875 C18.48849609 33.88853516 18.48849609 33.88853516 16.69140625 33.90234375 C13.79406464 33.92589937 10.89713559 33.95879348 8 34 C5.80006628 27.84073974 4.15995369 21.72184902 2.875 15.3125 C2.70613281 14.49716797 2.53726563 13.68183594 2.36328125 12.84179688 C1.4868717 8.57361338 0.68148619 4.30448931 0 0 Z " fill="#F8BE56" transform="translate(216,29)"/>
<path d="M0 0 C0.6875 2.61328125 0.6875 2.61328125 1 5 C-4.48583536 9.56792983 -9.99051351 14.03211519 -15.75 18.25 C-25.04023236 25.16058681 -33.68852065 32.85819626 -42.12182617 40.78320312 C-54.55956821 52.4656167 -54.55956821 52.4656167 -61 56 C-61.99 55.67 -62.98 55.34 -64 55 C-63.68365835 48.46227262 -62.31302406 44.05552289 -59.2109375 38.30859375 C-57.80322853 35.62486471 -56.84176862 32.90792795 -56 30 C-55.34 30 -54.68 30 -54 30 C-53.814375 29.071875 -53.62875 28.14375 -53.4375 27.1875 C-50.383455 16.66801166 -41.59689089 5.75995673 -32.75 -0.5625 C-24.21742415 -5.0227101 -8.33259655 -5.03427708 0 0 Z " fill="#F9F9F9" transform="translate(271,186)"/>
<path d="M0 0 C-1.41640789 3.42298573 -2.89782052 4.99859389 -6 7 C-14.47982776 10.12790281 -23.49352911 11.83594369 -32.33813477 13.60522461 C-33.48366821 13.83544312 -33.48366821 13.83544312 -34.65234375 14.0703125 C-35.32257568 14.20195801 -35.99280762 14.33360352 -36.68334961 14.46923828 C-38.58023798 14.90382942 -40.45489655 15.43442524 -42.31958008 15.99121094 C-48.67552686 17.73335171 -55.21982968 18.34097722 -61.75 19.125 C-62.48322479 19.21471069 -63.21644958 19.30442139 -63.97189331 19.39685059 C-75.35214034 20.77484042 -86.52892601 21.53840764 -98 21 C-98.6953125 19.25390625 -98.6953125 19.25390625 -99 17 C-94.14788631 9.14921978 -87.30707265 6.04592664 -79 3 C-78.67 2.67 -78.34 2.34 -78 2 C-70.88249825 1.51745751 -70.88249825 1.51745751 -67.26074219 3.49780273 C-63.69930052 5.13852979 -61.42157722 5.373827 -57.52734375 5.36328125 C-55.68172852 5.36231445 -55.68172852 5.36231445 -53.79882812 5.36132812 C-52.52458984 5.34521484 -51.25035156 5.32910156 -49.9375 5.3125 C-48.69033203 5.31572266 -47.44316406 5.31894531 -46.15820312 5.32226562 C-33.94040617 5.25237703 -22.39809923 3.17971495 -10.5078125 0.5859375 C-6.93842528 -0.01028531 -3.61167962 -0.10160736 0 0 Z " fill="#F5F5F5" transform="translate(194,92)"/>
<path d="M0 0 C-0.62982005 6.42416452 -0.62982005 6.42416452 -2.51171875 9.3515625 C-5.25392912 14.23140143 -4.70578724 19.57426058 -4 25 C-2.91261805 27.79774314 -1.66680796 30.22940042 -0.09375 32.78125 C1.17959905 35.3643295 1.20024423 37.15653195 1 40 C-4.89876877 43.05832197 -9.726505 43.43224536 -16.3125 43.3125 C-17.21806641 43.31572266 -18.12363281 43.31894531 -19.05664062 43.32226562 C-25.7324953 43.2675047 -25.7324953 43.2675047 -28 41 C-29.20126099 30.70547265 -28.51307336 13.56655828 -22 5 C-19.390625 4.0234375 -19.390625 4.0234375 -16.25 3.375 C-12.90313162 2.64237211 -9.74883909 1.91478469 -6.5 0.8125 C-4 0 -4 0 0 0 Z " fill="#F5F5F5" transform="translate(157,24)"/>
<path d="M0 0 C0.495 5.445 0.495 5.445 1 11 C-2.68805782 12.47522313 -5.37308062 13.38045494 -9.16796875 14.03515625 C-10.14443359 14.20466797 -11.12089844 14.37417969 -12.12695312 14.54882812 C-13.13693359 14.71833984 -14.14691406 14.88785156 -15.1875 15.0625 C-16.17814453 15.23587891 -17.16878906 15.40925781 -18.18945312 15.58789062 C-28.10034135 17.28411477 -37.81985614 18.1923774 -47.875 18.25 C-49.25945312 18.2809375 -49.25945312 18.2809375 -50.671875 18.3125 C-51.56132812 18.31765625 -52.45078125 18.3228125 -53.3671875 18.328125 C-54.55997314 18.34214355 -54.55997314 18.34214355 -55.77685547 18.35644531 C-58.64154416 17.89713876 -59.96168425 17.05587279 -62 15 C-62.609375 12.73828125 -62.609375 12.73828125 -62.75 10.3125 C-62.80671875 9.50425781 -62.8634375 8.69601563 -62.921875 7.86328125 C-62.94765625 7.24839844 -62.9734375 6.63351563 -63 6 C-62.30140869 5.98018066 -61.60281738 5.96036133 -60.88305664 5.93994141 C-42.69388199 5.39921042 -25.14788414 4.20348305 -7.29296875 0.5859375 C-4 0 -4 0 0 0 Z " fill="#EDEDED" transform="translate(192,70)"/>
<path d="M0 0 C0 1.32 0 2.64 0 4 C-0.99 4.391875 -1.98 4.78375 -3 5.1875 C-5.75403878 6.35604634 -8.1472952 7.70386719 -10.625 9.375 C-17.40963985 13.74878724 -25.25076878 16.1887869 -32.9375 18.5 C-37.27014938 19.93096677 -39.83092287 21.68001444 -43 25 C-45.24706958 29.6999776 -46.75375021 34.32015262 -48.0625 39.375 C-48.23168945 40.02476807 -48.40087891 40.67453613 -48.57519531 41.34399414 C-49.82981393 46.20715214 -50.96543973 51.08583871 -52 56 C-52.99 56 -53.98 56 -55 56 C-55.04987075 52.01647832 -55.08593964 48.0330805 -55.10986328 44.04931641 C-55.12472879 42.03671881 -55.150157 40.02420812 -55.17578125 38.01171875 C-55.25343783 22.55805973 -55.25343783 22.55805973 -51.8125 17.125 C-49.07917801 15.42845532 -46.08875701 14.8520709 -43 14 C-42.26136719 13.54625 -41.52273437 13.0925 -40.76171875 12.625 C-37.38487822 10.6380613 -33.85752179 9.32576516 -30.1875 8 C-29.51396484 7.7525 -28.84042969 7.505 -28.14648438 7.25 C-26.78692845 6.75041198 -25.42665664 6.25276777 -24.06567383 5.75708008 C-21.94274694 4.97901646 -19.82647203 4.18464292 -17.7109375 3.38671875 C-11.59591991 1.10163323 -6.56805373 -0.26808383 0 0 Z " fill="#E7E7E7" transform="translate(229,139)"/>
<path d="M0 0 C1.64453125 1.13671875 1.64453125 1.13671875 3 3 C4.21385924 10.89555291 3.32271817 18.2413527 -1 25 C-3.52771279 28.19290037 -5.14796368 29.67368822 -8.9375 31.125 C-12.48409438 30.98024105 -14.18216071 29.95502225 -16.7421875 27.515625 C-20.01263995 23.57483136 -20.39515281 18.88733811 -20.25390625 13.953125 C-19.60674002 8.97492325 -16.89100555 5.02633765 -13 2 C-8.62093535 0.3781242 -4.66612544 -0.53024153 0 0 Z " fill="#F2F2F2" transform="translate(183,26)"/>
<path d="M0 0 C3.2212785 0.61684056 3.97630578 1.04096458 5.9375 3.5625 C7.23447801 9.89480442 5.18907071 15.71981652 2.9375 21.5625 C2.24954691 23.49983917 1.56205763 25.43734309 0.875 27.375 C-0.26718856 30.55386214 -1.49308823 33.5701549 -3.0625 36.5625 C-4.0525 36.5625 -5.0425 36.5625 -6.0625 36.5625 C-8.76246536 30.73957914 -8.19738271 25.41632722 -7.9375 19.125 C-7.91429687 18.00544922 -7.89109375 16.88589844 -7.8671875 15.73242188 C-7.32070718 1.34461969 -7.32070718 1.34461969 0 0 Z " fill="#EEEEEE" transform="translate(159.0625,212.4375)"/>
<path d="M0 0 C-0.54723683 3.37462715 -1.0549 5.08235 -3 8 C-3.45601261 10.50896686 -3.45601261 10.50896686 -3.625 13.1875 C-3.69976562 14.08855469 -3.77453125 14.98960937 -3.8515625 15.91796875 C-3.90054688 16.60503906 -3.94953125 17.29210937 -4 18 C-7.77235429 17.42946335 -9.62716051 15.83356579 -12.3125 13.1875 C-13.03050781 12.50042969 -13.74851562 11.81335938 -14.48828125 11.10546875 C-16 9 -16 9 -15.9921875 6.91015625 C-13.17132162 1.47943414 -5.70593492 -0.73153012 0 0 Z " fill="#EAEAEA" transform="translate(131,165)"/>
<path d="M0 0 C0.75 2.25 0.75 2.25 1 5 C-0.375 7.3125 -0.375 7.3125 -3 9 C-6.04595374 9.4374508 -8.96059254 9.50461205 -12 9 C-14 7 -14 7 -14.0625 5.0625 C-12.64537157 2.31160364 -10.74268456 1.60554575 -7.921875 0.52734375 C-5.24057268 -0.20837945 -2.75801027 -0.20180563 0 0 Z " fill="#EBEBEB" transform="translate(163,127)"/>
<path d="M0 0 C0.66 0.33 1.32 0.66 2 1 C-2.19877293 6.02669999 -6.64890058 10.78066345 -11.25 15.4375 C-11.76916992 15.96956055 -12.28833984 16.50162109 -12.82324219 17.04980469 C-15.19822524 19.43095252 -16.76396847 20.92132282 -20 22 C-16.08186783 13.05599148 -7.30215864 6.18007752 0 0 Z " fill="#C79946" transform="translate(101,45)"/>
<path d="M0 0 C1.37610644 5.49286186 2 10.30301324 2 16 C2.33 16.66 2.66 17.32 3 18 C2.34 18 1.68 18 1 18 C1 18.66 1 19.32 1 20 C0.01 19.67 -0.98 19.34 -2 19 C-3.96224402 15.07551197 -3.42538262 10.60013112 -2.328125 6.47265625 C-1.59844559 4.29394368 -0.83271312 2.14126232 0 0 Z " fill="#29241A" transform="translate(133,133)"/>
<path d="M0 0 C-3.03103588 2.58612944 -5.37099257 3.52851629 -9.28125 4.203125 C-10.28800781 4.3784375 -11.29476562 4.55375 -12.33203125 4.734375 C-13.37746094 4.90453125 -14.42289063 5.0746875 -15.5 5.25 C-16.54542969 5.435625 -17.59085938 5.62125 -18.66796875 5.8125 C-27.15704787 7.24727394 -27.15704787 7.24727394 -31 6 C-29.94087402 5.78851318 -29.94087402 5.78851318 -28.86035156 5.57275391 C-25.65568496 4.9293968 -22.45285807 4.27729833 -19.25 3.625 C-18.13882813 3.40328125 -17.02765625 3.1815625 -15.8828125 2.953125 C-14.27792969 2.62441406 -14.27792969 2.62441406 -12.640625 2.2890625 C-11.65610352 2.09006348 -10.67158203 1.89106445 -9.65722656 1.68603516 C-7.00939099 1.1115486 -7.00939099 1.1115486 -4.83496094 -0.14306641 C-3 -1 -3 -1 0 0 Z " fill="#888888" transform="translate(186,100)"/>
<path d="M0 0 C0.66 0.33 1.32 0.66 2 1 C-2.29 5.29 -6.58 9.58 -11 14 C-11.66 13.67 -12.32 13.34 -13 13 C-11.58791833 11.39179588 -10.17013964 9.78859292 -8.75 8.1875 C-7.96109375 7.29417969 -7.1721875 6.40085938 -6.359375 5.48046875 C-4.34120555 3.35871775 -2.40083295 1.65745577 0 0 Z " fill="#C6C6C6" transform="translate(239,185)"/>
<path d="M0 0 C0.66 0.33 1.32 0.66 2 1 C1.57847656 1.47050781 1.15695313 1.94101563 0.72265625 2.42578125 C0.17480469 3.04839844 -0.37304688 3.67101562 -0.9375 4.3125 C-1.48277344 4.92738281 -2.02804688 5.54226562 -2.58984375 6.17578125 C-4.20081559 8.05241958 -4.20081559 8.05241958 -5 11 C-4.01 11.33 -3.02 11.66 -2 12 C-3.65 11.67 -5.3 11.34 -7 11 C-6.68232368 5.59950264 -3.80003673 3.47662935 0 0 Z " fill="#C4C4C4" transform="translate(102,101)"/>
<path d="M0 0 C0.66 0.33 1.32 0.66 2 1 C0.73657512 2.48549956 -0.5360103 3.96321189 -1.8125 5.4375 C-2.52019531 6.26121094 -3.22789063 7.08492188 -3.95703125 7.93359375 C-6 10 -6 10 -9 11 C-7.59155282 7.78475695 -5.89655214 5.67816132 -3.375 3.25 C-2.74335937 2.63640625 -2.11171875 2.0228125 -1.4609375 1.390625 C-0.73777344 0.70226562 -0.73777344 0.70226562 0 0 Z " fill="#403219" transform="translate(96,97)"/>
<path d="M0 0 C0.99 0 1.98 0 3 0 C3.33 3.3 3.66 6.6 4 10 C3.34 10 2.68 10 2 10 C1.34 6.7 0.68 3.4 0 0 Z " fill="#A7A7A7" transform="translate(199,67)"/>
<path d="M0 0 C-3.74525799 3.74525799 -7.98270909 3.68909949 -13 4 C-12 2 -12 2 -10.0390625 1.11328125 C-9.24242187 0.84902344 -8.44578125 0.58476563 -7.625 0.3125 C-6.83351562 0.04050781 -6.04203125 -0.23148437 -5.2265625 -0.51171875 C-3 -1 -3 -1 0 0 Z " fill="#5B5B5B" transform="translate(186,100)"/>
<path d="M0 0 C0.99 1.485 0.99 1.485 2 3 C2.66 2.34 3.32 1.68 4 1 C4 3.64 4 6.28 4 9 C3.01 9 2.02 9 1 9 C0.67 6.03 0.34 3.06 0 0 Z " fill="#191919" transform="translate(144,168)"/>
<path d="M0 0 C0.33 0 0.66 0 1 0 C1.24915939 1.76813112 1.47366632 3.53974982 1.6875 5.3125 C1.81511719 6.29863281 1.94273437 7.28476563 2.07421875 8.30078125 C2 11 2 11 -1 14 C-0.67 9.38 -0.34 4.76 0 0 Z " fill="#13110E" transform="translate(134,127)"/>
<path d="M0 0 C0.66 0.33 1.32 0.66 2 1 C0.68 1.33 -0.64 1.66 -2 2 C-2 3.32 -2 4.64 -2 6 C-1.01 6.66 -0.02 7.32 1 8 C-0.65 7.67 -2.3 7.34 -4 7 C-4.33 5.68 -4.66 4.36 -5 3 C-2.625 1.4375 -2.625 1.4375 0 0 Z " fill="#9E9E9E" transform="translate(154,128)"/>
<path d="M0 0 C0.66 0.33 1.32 0.66 2 1 C0.02 3.31 -1.96 5.62 -4 8 C-4 4.09161134 -2.49432124 2.88405893 0 0 Z " fill="#414141" transform="translate(188,161)"/>
<path d="M0 0 C-0.5859375 6.15234375 -0.5859375 6.15234375 -1 8 C-1.99 8.495 -1.99 8.495 -3 9 C-3 7.02 -3 5.04 -3 3 C-3.66 2.67 -4.32 2.34 -5 2 C-2 0 -2 0 0 0 Z " fill="#876831" transform="translate(126,31)"/>
</svg>
